<svg xmlns="http://www.w3.org/2000/svg" style="display:none">
    <!-- 집 아이콘 -->
    <symbol id="logo-symbol" viewBox="0 0 56 35" >
        <path fill-rule="evenodd" clip-rule="evenodd" d="M39.5483 24.9896C39.1884 24.9897 38.8427 25.132 38.5882 25.3851C38.3337 25.6382 38.1908 25.9818 38.1908 26.3397V33.7146C38.1907 34.0724 38.0479 34.4155 37.7935 34.6686C37.539 34.9217 37.2911 35 36.9311 35C24.7952 35 13.3949 35 1.25969 35C0.564211 34.9997 0 34.4402 0 33.75C0 33.0598 0.56421 32.5003 1.25969 32.5H5.40071V21.875H4.19272C3.49724 21.8747 2.93303 21.3152 2.93303 20.625C2.93303 19.9348 3.49724 19.3753 4.19272 19.375L8.33829 19.125V11.875L6.69998 12.5128C6.06375 12.7916 5.31984 12.5063 5.03864 11.875C4.75756 11.2438 5.0455 10.5057 5.6814 10.2264L23.7179 2.23938L28.28 0.144653L28.4387 0.0817871C28.6001 0.0278731 28.7702 5.53157e-05 28.9412 0H38.3723C39.3297 3.32485e-05 40.0657 0.840985 39.9316 1.78162L37.6686 18.9446L52.2102 22.1295C52.8751 22.3323 53.2485 23.0316 53.0442 23.6914C52.8399 24.3512 52.1352 24.7224 51.4702 24.5197L50.9677 24.3665L50.8595 32.5H54.7403C55.436 32.5 56 33.0596 56 33.75C56 34.4404 55.436 35 54.7403 35H49.6879C49.3281 34.9999 49.08 34.896 48.8255 34.6429C48.5712 34.3899 48.4282 34.0462 48.4282 33.6884V26.3141C48.4282 25.9562 48.2853 25.6126 48.0308 25.3595C47.7763 25.1064 47.4306 24.9646 47.0707 24.9646L39.5483 24.9896ZM22.0923 23.75C21.3966 23.7501 20.8326 24.3097 20.8326 25V30C20.8326 30.6903 21.3966 31.2499 22.0923 31.25H30.9101C31.6058 31.25 32.1698 30.6904 32.1698 30V25C32.1698 24.3096 31.6058 23.75 30.9101 23.75H22.0923ZM10.1252 23.75C9.42953 23.7501 8.86549 24.3097 8.86549 25V26.875C8.86549 27.5653 9.42953 28.1249 10.1252 28.125H14.5341C15.2298 28.125 15.7938 27.5654 15.7938 26.875V25C15.7938 24.3096 15.2298 23.75 14.5341 23.75H10.1252ZM14.2709 11.3467C13.5752 11.3468 13.0112 11.9064 13.0112 12.5967V18.9446H18.05V12.5967C18.05 11.9063 17.486 11.3467 16.7903 11.3467H14.2709ZM23.7186 11.3467C23.0229 11.3468 22.4589 11.9064 22.4589 12.5967V13.8467C22.4589 14.537 23.0229 15.0966 23.7186 15.0967H32.5365C33.2322 15.0967 33.7961 14.5371 33.7961 13.8467V12.5967C33.7961 11.9063 33.2322 11.3467 32.5365 11.3467H23.7186Z" />
    </symbol>

    <!-- 텍스트 로고 -->
    <symbol id="logo-text" viewBox="0 0 98 31">
        <path d="M89.7639 30V28.884H90.5079V24.12H89.7639V23.004H92.3319L95.38 27.492V24.12H94.6359V23.004H97.504V24.12H96.7599V30H95.032L91.8879 25.272V28.884H92.644V30H89.7639Z" />
        <path d="M79.652 30V28.884H80.372L82.184 24.12H81.404V23.004H86.024V24.12H85.244L87.068 28.884H87.776V30H84.656V28.884H85.424L84.764 27.072L85.268 27.504H82.172L82.628 27.072L81.98 28.884H82.748V30H79.652ZM82.7 26.832L82.448 26.436H84.932L84.704 26.832L83.732 24.12H83.684L82.7 26.832Z" />
        <path d="M71.058 30V28.884H71.802V24.12H71.058V23.004H74.994C75.85 23.004 76.502 23.18 76.95 23.532C77.406 23.876 77.634 24.404 77.634 25.116C77.634 25.836 77.406 26.368 76.95 26.712C76.502 27.056 75.878 27.228 75.078 27.228H74.85L76.122 26.676L77.478 28.884H78.318V30H76.242L74.55 27.228H73.974V26.112H74.706C75.138 26.112 75.45 26.024 75.642 25.848C75.842 25.672 75.942 25.428 75.942 25.116C75.942 24.796 75.85 24.552 75.666 24.384C75.482 24.208 75.162 24.12 74.706 24.12H73.446V28.884H74.202V30H71.058Z" />
        <path d="M64.7618 30.12C63.9778 30.12 63.2938 29.968 62.7098 29.664C62.1258 29.352 61.6738 28.924 61.3538 28.38C61.0338 27.828 60.8738 27.2 60.8738 26.496C60.8738 25.784 61.0338 25.156 61.3538 24.612C61.6738 24.068 62.1258 23.644 62.7098 23.34C63.2938 23.028 63.9778 22.872 64.7618 22.872C65.5458 22.872 66.2258 23.028 66.8018 23.34C67.3858 23.644 67.8378 24.068 68.1578 24.612C68.4858 25.156 68.6498 25.784 68.6498 26.496C68.6498 27.2 68.4858 27.828 68.1578 28.38C67.8378 28.924 67.3858 29.352 66.8018 29.664C66.2258 29.968 65.5458 30.12 64.7618 30.12ZM64.7618 28.824C65.2018 28.824 65.5858 28.732 65.9138 28.548C66.2418 28.356 66.4938 28.088 66.6698 27.744C66.8538 27.392 66.9458 26.98 66.9458 26.508C66.9458 26.028 66.8538 25.616 66.6698 25.272C66.4938 24.92 66.2418 24.648 65.9138 24.456C65.5858 24.264 65.2018 24.168 64.7618 24.168C64.3138 24.168 63.9258 24.264 63.5978 24.456C63.2698 24.648 63.0178 24.92 62.8418 25.272C62.6658 25.616 62.5778 26.028 62.5778 26.508C62.5778 26.98 62.6658 27.392 62.8418 27.744C63.0178 28.088 63.2698 28.356 63.5978 28.548C63.9258 28.732 64.3138 28.824 64.7618 28.824Z" />
        <path d="M50.688 30V28.884H51.432V24.12H50.688V23.004H54.528C55.416 23.004 56.144 23.148 56.712 23.436C57.288 23.724 57.716 24.128 57.996 24.648C58.284 25.168 58.428 25.784 58.428 26.496C58.428 27.216 58.288 27.84 58.008 28.368C57.736 28.888 57.312 29.292 56.736 29.58C56.168 29.86 55.44 30 54.552 30H50.688ZM53.076 28.884H54.384C54.96 28.884 55.416 28.792 55.752 28.608C56.096 28.424 56.344 28.152 56.496 27.792C56.648 27.432 56.724 27 56.724 26.496C56.724 25.992 56.648 25.564 56.496 25.212C56.344 24.852 56.096 24.58 55.752 24.396C55.408 24.212 54.952 24.12 54.384 24.12H53.076V28.884Z" />
        <path d="M40.6319 30V28.884H41.3759V24.12H40.6319V23.004H43.1999L46.2479 27.492V24.12H45.5039V23.004H48.3719V24.12H47.6279V30H45.8999L42.7559 25.272V28.884H43.5119V30H40.6319Z" />
        <path d="M30.5199 30V28.884H31.2399L33.0519 24.12H32.2719V23.004H36.8919V24.12H36.1119L37.9359 28.884H38.6439V30H35.5239V28.884H36.2919L35.6319 27.072L36.1359 27.504H33.0399L33.4959 27.072L32.8479 28.884H33.6159V30H30.5199ZM33.5679 26.832L33.3159 26.436H35.7999L35.5719 26.832L34.5999 24.12H34.5519L33.5679 26.832Z" />
        <path d="M21.926 30V28.884H22.67V24.12H21.926V23.004H25.862C26.718 23.004 27.37 23.18 27.818 23.532C28.274 23.876 28.502 24.404 28.502 25.116C28.502 25.836 28.274 26.368 27.818 26.712C27.37 27.056 26.746 27.228 25.946 27.228H25.718L26.99 26.676L28.346 28.884H29.186V30H27.11L25.418 27.228H24.842V26.112H25.574C26.006 26.112 26.318 26.024 26.51 25.848C26.71 25.672 26.81 25.428 26.81 25.116C26.81 24.796 26.718 24.552 26.534 24.384C26.35 24.208 26.03 24.12 25.574 24.12H24.314V28.884H25.07V30H21.926Z" />
        <path d="M15.6298 30.12C14.8458 30.12 14.1618 29.968 13.5778 29.664C12.9938 29.352 12.5418 28.924 12.2218 28.38C11.9018 27.828 11.7418 27.2 11.7418 26.496C11.7418 25.784 11.9018 25.156 12.2218 24.612C12.5418 24.068 12.9938 23.644 13.5778 23.34C14.1618 23.028 14.8458 22.872 15.6298 22.872C16.4138 22.872 17.0938 23.028 17.6698 23.34C18.2538 23.644 18.7058 24.068 19.0258 24.612C19.3538 25.156 19.5178 25.784 19.5178 26.496C19.5178 27.2 19.3538 27.828 19.0258 28.38C18.7058 28.924 18.2538 29.352 17.6698 29.664C17.0938 29.968 16.4138 30.12 15.6298 30.12ZM15.6298 28.824C16.0698 28.824 16.4538 28.732 16.7818 28.548C17.1098 28.356 17.3618 28.088 17.5378 27.744C17.7218 27.392 17.8138 26.98 17.8138 26.508C17.8138 26.028 17.7218 25.616 17.5378 25.272C17.3618 24.92 17.1098 24.648 16.7818 24.456C16.4538 24.264 16.0698 24.168 15.6298 24.168C15.1818 24.168 14.7938 24.264 14.4658 24.456C14.1378 24.648 13.8858 24.92 13.7098 25.272C13.5338 25.616 13.4458 26.028 13.4458 26.508C13.4458 26.98 13.5338 27.392 13.7098 27.744C13.8858 28.088 14.1378 28.356 14.4658 28.548C14.7938 28.732 15.1818 28.824 15.6298 28.824Z" />
        <path d="M1.55597 30V28.884H2.29997V24.12H1.55597V23.004H5.39597C6.28397 23.004 7.01197 23.148 7.57997 23.436C8.15597 23.724 8.58397 24.128 8.86397 24.648C9.15197 25.168 9.29597 25.784 9.29597 26.496C9.29597 27.216 9.15597 27.84 8.87597 28.368C8.60397 28.888 8.17997 29.292 7.60397 29.58C7.03597 29.86 6.30797 30 5.41997 30H1.55597ZM3.94397 28.884H5.25197C5.82797 28.884 6.28397 28.792 6.61997 28.608C6.96397 28.424 7.21197 28.152 7.36397 27.792C7.51597 27.432 7.59197 27 7.59197 26.496C7.59197 25.992 7.51597 25.564 7.36397 25.212C7.21197 24.852 6.96397 24.58 6.61997 24.396C6.27597 24.212 5.81997 24.12 5.25197 24.12H3.94397V28.884Z" />
        <path d="M94.2637 4.59375H91.1172V2.58105H94.2637V4.59375ZM94.2637 7.66113H91.1172V5.63086H94.2637V7.66113ZM88.2344 3.27539C88.2344 4.44727 88.0762 5.52539 87.7598 6.50977C87.4492 7.49414 86.9658 8.35547 86.3096 9.09375C85.6533 9.82617 84.8213 10.3799 83.8135 10.7549L82.4424 8.78613C83.3154 8.48145 84.0332 8.04785 84.5957 7.48535C85.1582 6.92285 85.5654 6.28418 85.8174 5.56934C86.0693 4.84863 86.1982 4.08398 86.2041 3.27539V1.48242H88.2344V3.27539ZM88.7617 3.27539C88.7617 4.04883 88.8789 4.78125 89.1133 5.47266C89.3535 6.1582 89.7373 6.7793 90.2646 7.33594C90.7979 7.88672 91.4805 8.31445 92.3125 8.61914L90.915 10.5791C89.9658 10.21 89.1807 9.66211 88.5596 8.93555C87.9443 8.20898 87.4873 7.36523 87.1885 6.4043C86.8955 5.44336 86.749 4.40039 86.749 3.27539V1.48242H88.7617V3.27539ZM96.2148 12.5039H93.7012V0.577148H96.2148V12.5039ZM96.5488 16.4326H85.3779V14.4023H96.5488V16.4326ZM87.9443 15.6855H85.3779V11.3965H87.9443V15.6855Z" />
        <path d="M80.9922 12.4775H78.5752V0.541992H80.9922V12.4775ZM76.5713 6.94922H74.1543V4.97168H76.5713V6.94922ZM77.8545 12.1611H75.5078V0.823242H77.8545V12.1611ZM74.541 3.92578H67.1318V1.91309H74.541V3.92578ZM66.833 8.21484C68.3975 8.2207 69.8418 8.20605 71.166 8.1709C72.4961 8.13574 73.6914 8.05371 74.752 7.9248L74.875 9.76172C73.7734 9.97266 72.5547 10.1133 71.2188 10.1836C69.8887 10.248 68.5176 10.2773 67.1055 10.2715H67.0879L66.833 8.21484ZM70.3311 8.79492H68.0283V3.47754H70.3311V8.79492ZM73.5742 8.79492H71.3154V3.47754H73.5742V8.79492ZM81.3613 16.4326H70.0498V14.4023H81.3613V16.4326ZM72.625 15.6328H70.0498V11.1592H72.625V15.6328Z" />
        <path d="M60.25 12.4424H57.71V0.577148H60.25V12.4424ZM62.3594 7.2041H59.5117V5.1123H62.3594V7.2041ZM60.8213 16.4326H49.7031V14.4023H60.8213V16.4326ZM52.2783 15.0703H49.7031V11.4844H52.2783V15.0703ZM49.3252 8.16211C50.9951 8.17383 52.3721 8.14746 53.4561 8.08301C54.54 8.0127 55.6152 7.88086 56.6816 7.6875L56.9541 9.70898C55.917 9.90234 54.8535 10.0312 53.7637 10.0957C52.6738 10.1543 51.1943 10.1865 49.3252 10.1924H47.9453V8.16211H49.3252ZM55.3809 6.73828H50.4766V8.90918H47.9453V4.83984H52.9111V3.54785H47.9189V1.52637H55.3809V6.73828Z" />
        <path d="M45.0186 9.66504H33.54V7.66113H45.0186V9.66504ZM46.5918 14.9209H31.8525V12.8555H46.5918V14.9209ZM40.4395 13.4883H37.9434V8.5752H40.4395V13.4883ZM44.9131 3.64453H36.0713V8.55762H33.54V1.64062H44.9131V3.64453Z" />
        <path d="M29.1367 12.4424H26.5967V0.577148H29.1367V12.4424ZM31.2461 7.2041H28.3984V5.1123H31.2461V7.2041ZM29.708 16.4326H18.5898V14.4023H29.708V16.4326ZM21.165 15.0703H18.5898V11.4844H21.165V15.0703ZM18.2119 8.16211C19.8818 8.17383 21.2588 8.14746 22.3428 8.08301C23.4268 8.0127 24.502 7.88086 25.5684 7.6875L25.8408 9.70898C24.8037 9.90234 23.7402 10.0312 22.6504 10.0957C21.5605 10.1543 20.0811 10.1865 18.2119 10.1924H16.832V8.16211H18.2119ZM24.2676 6.73828H19.3633V8.90918H16.832V4.83984H21.7979V3.54785H16.8057V1.52637H24.2676V6.73828Z" />
        <path d="M13.9053 9.66504H2.42676V7.66113H13.9053V9.66504ZM15.4785 14.9209H0.739258V12.8555H15.4785V14.9209ZM9.32617 13.4883H6.83008V8.5752H9.32617V13.4883ZM13.7998 3.64453H4.95801V8.55762H2.42676V1.64062H13.7998V3.64453Z" />
    </symbol>


    <symbol    id="logo-text-bottom"    viewBox="0 0 97 9" >
        <path d="M88.7637 7.99991V6.88391H89.5077V2.11991H88.7637V1.00391H91.3317L94.3798 5.49191V2.11991H93.6357V1.00391H96.5038V2.11991H95.7597V7.99991H94.0318L90.8877 3.27191V6.88391H91.6438V7.99991H88.7637Z" />
        <path d="M78.6523 7.99991V6.88391H79.3723L81.1843 2.11991H80.4043V1.00391H85.0243V2.11991H84.2443L86.0683 6.88391H86.7763V7.99991H83.6563V6.88391H84.4243L83.7643 5.07191L84.2683 5.50391H81.1723L81.6283 5.07191L80.9803 6.88391H81.7483V7.99991H78.6523ZM81.7003 4.83191L81.4483 4.43591H83.9323L83.7043 4.83191L82.7323 2.11991H82.6843L81.7003 4.83191Z" />
        <path d="M70.0576 7.99991V6.88391H70.8016V2.11991H70.0576V1.00391H73.9936C74.8496 1.00391 75.5016 1.17991 75.9496 1.53191C76.4056 1.87591 76.6336 2.40391 76.6336 3.11591C76.6336 3.83591 76.4056 4.36791 75.9496 4.71191C75.5016 5.05591 74.8776 5.22791 74.0776 5.22791H73.8496L75.1216 4.67591L76.4776 6.88391H77.3176V7.99991H75.2416L73.5496 5.22791H72.9736V4.11191H73.7056C74.1376 4.11191 74.4496 4.02391 74.6416 3.84791C74.8416 3.67191 74.9416 3.42791 74.9416 3.11591C74.9416 2.79591 74.8496 2.55191 74.6656 2.38391C74.4816 2.20791 74.1616 2.11991 73.7056 2.11991H72.4456V6.88391H73.2016V7.99991H70.0576Z" />
        <path d="M63.762 8.12007C62.978 8.12007 62.294 7.96807 61.71 7.66407C61.126 7.35207 60.674 6.92407 60.354 6.38007C60.034 5.82807 59.874 5.20007 59.874 4.49607C59.874 3.78407 60.034 3.15607 60.354 2.61207C60.674 2.06807 61.126 1.64407 61.71 1.34007C62.294 1.02807 62.978 0.87207 63.762 0.87207C64.546 0.87207 65.226 1.02807 65.802 1.34007C66.386 1.64407 66.838 2.06807 67.158 2.61207C67.486 3.15607 67.65 3.78407 67.65 4.49607C67.65 5.20007 67.486 5.82807 67.158 6.38007C66.838 6.92407 66.386 7.35207 65.802 7.66407C65.226 7.96807 64.546 8.12007 63.762 8.12007ZM63.762 6.82407C64.202 6.82407 64.586 6.73207 64.914 6.54807C65.242 6.35607 65.494 6.08807 65.67 5.74407C65.854 5.39207 65.946 4.98007 65.946 4.50807C65.946 4.02807 65.854 3.61607 65.67 3.27207C65.494 2.92007 65.242 2.64807 64.914 2.45607C64.586 2.26407 64.202 2.16807 63.762 2.16807C63.314 2.16807 62.926 2.26407 62.598 2.45607C62.27 2.64807 62.018 2.92007 61.842 3.27207C61.666 3.61607 61.578 4.02807 61.578 4.50807C61.578 4.98007 61.666 5.39207 61.842 5.74407C62.018 6.08807 62.27 6.35607 62.598 6.54807C62.926 6.73207 63.314 6.82407 63.762 6.82407Z" />
        <path d="M49.6885 7.99991V6.88391H50.4325V2.11991H49.6885V1.00391H53.5285C54.4165 1.00391 55.1445 1.14791 55.7125 1.43591C56.2885 1.72391 56.7165 2.12791 56.9965 2.64791C57.2845 3.16791 57.4285 3.78391 57.4285 4.49591C57.4285 5.21591 57.2885 5.83991 57.0085 6.36791C56.7365 6.88791 56.3125 7.29191 55.7365 7.57991C55.1685 7.85991 54.4405 7.99991 53.5525 7.99991H49.6885ZM52.0765 6.88391H53.3845C53.9605 6.88391 54.4165 6.79191 54.7525 6.60791C55.0965 6.42391 55.3445 6.15191 55.4965 5.79191C55.6485 5.43191 55.7245 4.99991 55.7245 4.49591C55.7245 3.99191 55.6485 3.56391 55.4965 3.21191C55.3445 2.85191 55.0965 2.57991 54.7525 2.39591C54.4085 2.21191 53.9525 2.11991 53.3845 2.11991H52.0765V6.88391Z" />
        <path d="M39.6318 7.99991V6.88391H40.3758V2.11991H39.6318V1.00391H42.1998L45.2478 5.49191V2.11991H44.5038V1.00391H47.3718V2.11991H46.6278V7.99991H44.8998L41.7558 3.27191V6.88391H42.5118V7.99991H39.6318Z" />
        <path d="M29.5195 7.99991V6.88391H30.2395L32.0515 2.11991H31.2715V1.00391H35.8915V2.11991H35.1115L36.9355 6.88391H37.6435V7.99991H34.5235V6.88391H35.2915L34.6315 5.07191L35.1355 5.50391H32.0395L32.4955 5.07191L31.8475 6.88391H32.6155V7.99991H29.5195ZM32.5675 4.83191L32.3155 4.43591H34.7995L34.5715 4.83191L33.5995 2.11991H33.5515L32.5675 4.83191Z" />
        <path d="M20.9258 7.99991V6.88391H21.6698V2.11991H20.9258V1.00391H24.8618C25.7178 1.00391 26.3698 1.17991 26.8178 1.53191C27.2738 1.87591 27.5018 2.40391 27.5018 3.11591C27.5018 3.83591 27.2738 4.36791 26.8178 4.71191C26.3698 5.05591 25.7458 5.22791 24.9458 5.22791H24.7178L25.9898 4.67591L27.3458 6.88391H28.1858V7.99991H26.1098L24.4178 5.22791H23.8418V4.11191H24.5738C25.0058 4.11191 25.3178 4.02391 25.5098 3.84791C25.7098 3.67191 25.8098 3.42791 25.8098 3.11591C25.8098 2.79591 25.7178 2.55191 25.5338 2.38391C25.3498 2.20791 25.0298 2.11991 24.5738 2.11991H23.3138V6.88391H24.0698V7.99991H20.9258Z" />
        <path d="M14.6302 8.12007C13.8462 8.12007 13.1622 7.96807 12.5782 7.66407C11.9942 7.35207 11.5422 6.92407 11.2222 6.38007C10.9022 5.82807 10.7422 5.20007 10.7422 4.49607C10.7422 3.78407 10.9022 3.15607 11.2222 2.61207C11.5422 2.06807 11.9942 1.64407 12.5782 1.34007C13.1622 1.02807 13.8462 0.87207 14.6302 0.87207C15.4142 0.87207 16.0942 1.02807 16.6702 1.34007C17.2542 1.64407 17.7062 2.06807 18.0262 2.61207C18.3542 3.15607 18.5182 3.78407 18.5182 4.49607C18.5182 5.20007 18.3542 5.82807 18.0262 6.38007C17.7062 6.92407 17.2542 7.35207 16.6702 7.66407C16.0942 7.96807 15.4142 8.12007 14.6302 8.12007ZM14.6302 6.82407C15.0702 6.82407 15.4542 6.73207 15.7822 6.54807C16.1102 6.35607 16.3622 6.08807 16.5382 5.74407C16.7222 5.39207 16.8142 4.98007 16.8142 4.50807C16.8142 4.02807 16.7222 3.61607 16.5382 3.27207C16.3622 2.92007 16.1102 2.64807 15.7822 2.45607C15.4542 2.26407 15.0702 2.16807 14.6302 2.16807C14.1822 2.16807 13.7942 2.26407 13.4662 2.45607C13.1382 2.64807 12.8862 2.92007 12.7102 3.27207C12.5342 3.61607 12.4462 4.02807 12.4462 4.50807C12.4462 4.98007 12.5342 5.39207 12.7102 5.74407C12.8862 6.08807 13.1382 6.35607 13.4662 6.54807C13.7942 6.73207 14.1822 6.82407 14.6302 6.82407Z" />
        <path d="M0.555664 7.99991V6.88391H1.29966V2.11991H0.555664V1.00391H4.39566C5.28366 1.00391 6.01166 1.14791 6.57966 1.43591C7.15566 1.72391 7.58366 2.12791 7.86366 2.64791C8.15166 3.16791 8.29566 3.78391 8.29566 4.49591C8.29566 5.21591 8.15566 5.83991 7.87566 6.36791C7.60366 6.88791 7.17966 7.29191 6.60366 7.57991C6.03566 7.85991 5.30766 7.99991 4.41966 7.99991H0.555664ZM2.94366 6.88391H4.25166C4.82766 6.88391 5.28366 6.79191 5.61966 6.60791C5.96366 6.42391 6.21166 6.15191 6.36366 5.79191C6.51566 5.43191 6.59166 4.99991 6.59166 4.49591C6.59166 3.99191 6.51566 3.56391 6.36366 3.21191C6.21166 2.85191 5.96366 2.57991 5.61966 2.39591C5.27566 2.21191 4.81966 2.11991 4.25166 2.11991H2.94366V6.88391Z" />
    </symbol>

</svg>
